<svg width="31" height="35" viewBox="0 0 31 35" fill="none" xmlns="http://www.w3.org/2000/svg">
<path d="M15.5 4.15625C17.7475 4.15625 19.5688 6.2125 19.5688 8.75C19.5688 11.2875 17.7475 13.3438 15.5 13.3438C13.2525 13.3438 11.4312 11.2875 11.4312 8.75C11.4312 6.2125 13.2525 4.15625 15.5 4.15625ZM15.5 23.8438C21.2544 23.8438 27.3188 27.0375 27.3188 28.4375V30.8438H3.68125V28.4375C3.68125 27.0375 9.74562 23.8438 15.5 23.8438ZM15.5 0C11.2181 0 7.75 3.91562 7.75 8.75C7.75 13.5844 11.2181 17.5 15.5 17.5C19.7819 17.5 23.25 13.5844 23.25 8.75C23.25 3.91562 19.7819 0 15.5 0ZM15.5 19.6875C10.3269 19.6875 0 22.6187 0 28.4375V35H31V28.4375C31 22.6187 20.6731 19.6875 15.5 19.6875Z" fill="#FFFCFC"/>
</svg>
